<svg version="1.1" id="Layer_1" xmlns="http://www.w3.org/2000/svg" xmlns:xlink="http://www.w3.org/1999/xlink" x="0px" y="0px"
	 width="100%" viewBox="0 0 338 270" enable-background="new 0 0 338 270" xml:space="preserve">
<path fill="#FFFFFF" opacity="1.000000" stroke="none" 
	d="
M204.000000,271.000000 
	C136.000000,271.000000 68.500000,271.000000 1.000000,271.000000 
	C1.000000,181.000000 1.000000,91.000000 1.000000,1.000000 
	C113.666664,1.000000 226.333328,1.000000 339.000000,1.000000 
	C339.000000,91.000000 339.000000,181.000000 339.000000,271.000000 
	C294.166656,271.000000 249.333328,271.000000 204.000000,271.000000 
M20.000517,158.500000 
	C20.000551,179.158218 19.990658,199.816437 20.003630,220.474655 
	C20.014858,238.355042 30.680914,248.994110 48.637497,248.996277 
	C131.103607,249.006256 213.569717,249.005112 296.035828,248.997147 
	C314.219482,248.995392 324.900879,238.314804 324.904999,220.113541 
	C324.917969,162.637161 324.918365,105.160774 324.904510,47.684387 
	C324.900177,29.648924 314.343445,19.007738 296.439514,19.004995 
	C213.806808,18.992338 131.174088,18.992676 48.541382,19.004702 
	C30.496885,19.007326 20.009653,29.510998 20.004026,47.545181 
	C19.992588,84.196785 20.000551,120.848396 20.000517,158.500000 
z"/>
<path fill="#46CDCF" opacity="1.000000" stroke="none" 
	d="
M20.000517,158.000000 
	C20.000551,120.848396 19.992588,84.196785 20.004026,47.545181 
	C20.009653,29.510998 30.496885,19.007326 48.541382,19.004702 
	C131.174088,18.992676 213.806808,18.992338 296.439514,19.004995 
	C314.343445,19.007738 324.900177,29.648924 324.904510,47.684387 
	C324.918365,105.160774 324.917969,162.637161 324.904999,220.113541 
	C324.900879,238.314804 314.219482,248.995392 296.035828,248.997147 
	C213.569717,249.005112 131.103607,249.006256 48.637497,248.996277 
	C30.680914,248.994110 20.014858,238.355042 20.003630,220.474655 
	C19.990658,199.816437 20.000551,179.158218 20.000517,158.000000 
M102.115349,182.588074 
	C104.312317,181.081116 106.668411,179.757950 108.669891,178.025177 
	C111.873383,175.251801 115.094170,175.055481 119.200005,176.026489 
	C135.859543,179.966446 152.192307,178.515671 168.206711,172.364151 
	C170.516373,171.476959 173.751511,171.526367 176.082489,172.404922 
	C191.937271,178.380722 208.109848,180.091965 224.587082,176.067780 
	C229.327789,174.909958 232.660202,175.820892 236.414307,178.578568 
	C244.549332,184.554337 253.008957,190.088226 262.295349,196.461288 
	C260.587128,184.634933 258.925751,174.010895 257.625336,163.342834 
	C257.383362,161.357681 257.958252,158.635498 259.226837,157.199020 
	C279.181274,134.604050 276.572113,103.922859 252.493805,85.802658 
	C229.522446,68.515488 204.202591,66.632919 177.763763,76.417969 
	C173.671707,77.932449 170.519897,78.006676 166.521347,76.430161 
	C145.146606,68.002724 123.873314,68.501762 103.144218,78.578697 
	C68.934456,95.208893 61.872654,133.221252 85.368172,157.612411 
	C86.638222,158.930878 86.843155,161.890289 86.582298,163.964951 
	C85.260101,174.480499 83.620010,184.956085 81.942581,196.466415 
	C88.998001,191.616287 95.263306,187.309326 102.115349,182.588074 
z"/>
<path fill="#FBFEFE" opacity="1.000000" stroke="none" 
	d="
M101.821976,182.795227 
	C95.263306,187.309326 88.998001,191.616287 81.942581,196.466415 
	C83.620010,184.956085 85.260101,174.480499 86.582298,163.964951 
	C86.843155,161.890289 86.638222,158.930878 85.368172,157.612411 
	C61.872654,133.221252 68.934456,95.208893 103.144218,78.578697 
	C123.873314,68.501762 145.146606,68.002724 166.521347,76.430161 
	C170.519897,78.006676 173.671707,77.932449 177.763763,76.417969 
	C204.202591,66.632919 229.522446,68.515488 252.493805,85.802658 
	C276.572113,103.922859 279.181274,134.604050 259.226837,157.199020 
	C257.958252,158.635498 257.383362,161.357681 257.625336,163.342834 
	C258.925751,174.010895 260.587128,184.634933 262.295349,196.461288 
	C253.008957,190.088226 244.549332,184.554337 236.414307,178.578568 
	C232.660202,175.820892 229.327789,174.909958 224.587082,176.067780 
	C208.109848,180.091965 191.937271,178.380722 176.082489,172.404922 
	C173.751511,171.526367 170.516373,171.476959 168.206711,172.364151 
	C152.192307,178.515671 135.859543,179.966446 119.200005,176.026489 
	C115.094170,175.055481 111.873383,175.251801 108.669891,178.025177 
	C106.668411,179.757950 104.312317,181.081116 101.821976,182.795227 
M101.055359,92.483955 
	C96.704491,97.011299 91.514717,100.995117 88.162323,106.169365 
	C78.656113,120.841713 81.598274,138.381302 95.113571,151.441849 
	C97.780846,154.019379 99.654526,156.271774 98.418190,160.421677 
	C97.355766,163.987823 97.352249,167.869415 96.731697,172.791779 
	C101.032967,169.865494 104.534813,167.722885 107.755722,165.218903 
	C110.525856,163.065338 113.089500,163.219116 116.477646,163.782379 
	C125.593628,165.297913 134.840439,166.471603 144.064011,166.721390 
	C149.273926,166.862473 154.540451,164.913483 160.908737,163.689255 
	C147.698456,152.892975 141.488998,139.950516 141.487488,124.521729 
	C141.485977,109.040100 148.794952,96.605820 160.974457,85.895584 
	C139.488846,79.164131 120.038467,80.400444 101.055359,92.483955 
M201.878433,134.179245 
	C199.624039,145.826340 193.291077,155.126831 184.066269,163.399261 
	C199.162399,168.167511 213.345627,168.515335 227.489273,163.931870 
	C231.049713,162.778061 233.740982,163.020874 236.647354,165.356644 
	C239.702759,167.812195 243.104828,169.836349 247.482803,172.816406 
	C246.955688,168.783936 246.816040,166.025986 246.202621,163.377792 
	C244.959717,158.012085 246.018738,154.152069 250.376663,149.950287 
	C265.395233,135.469925 265.391022,113.316238 250.383469,98.774246 
	C232.267258,81.220047 210.494980,78.478600 186.932388,84.842232 
	C185.944122,85.109146 185.056580,85.749023 183.772781,86.389404 
	C198.046341,99.208672 205.207336,114.302292 201.878433,134.179245 
M175.495789,132.859787 
	C180.656311,132.627457 185.923462,133.376648 191.000763,132.378159 
	C190.957718,131.785599 190.914673,131.193054 190.871628,130.600494 
	C178.323151,130.600494 165.774689,130.600494 153.226212,130.600494 
	C153.201202,131.077652 153.176193,131.554810 153.151184,132.031967 
	C160.135956,133.902863 167.401627,132.346191 175.495789,132.859787 
M158.299500,144.406128 
	C167.481995,146.900391 176.668533,146.883072 185.883575,143.630951 
	C176.785812,143.630951 167.688049,143.630951 158.299500,144.406128 
M161.581696,119.119759 
	C171.294617,119.119759 181.007553,119.119759 190.720474,119.119759 
	C190.701447,118.650146 190.682434,118.180534 190.663406,117.710922 
	C178.234100,117.710922 165.804794,117.710922 153.375488,117.710922 
	C153.378830,118.180580 153.382156,118.650246 153.385498,119.119904 
	C155.795700,119.119904 158.205902,119.119904 161.581696,119.119759 
M175.448776,105.992912 
	C178.780533,105.992912 182.112289,105.992912 186.691406,105.992912 
	C181.551666,103.079842 161.520554,103.301361 158.126602,105.992905 
	C163.933563,105.992905 169.199615,105.992905 175.448776,105.992912 
z"/>
<path fill="#47CDCF" opacity="1.000000" stroke="none" 
	d="
M101.354660,92.277588 
	C120.038467,80.400444 139.488846,79.164131 160.974457,85.895584 
	C148.794952,96.605820 141.485977,109.040100 141.487488,124.521729 
	C141.488998,139.950516 147.698456,152.892975 160.908737,163.689255 
	C154.540451,164.913483 149.273926,166.862473 144.064011,166.721390 
	C134.840439,166.471603 125.593628,165.297913 116.477646,163.782379 
	C113.089500,163.219116 110.525856,163.065338 107.755722,165.218903 
	C104.534813,167.722885 101.032967,169.865494 96.731697,172.791779 
	C97.352249,167.869415 97.355766,163.987823 98.418190,160.421677 
	C99.654526,156.271774 97.780846,154.019379 95.113571,151.441849 
	C81.598274,138.381302 78.656113,120.841713 88.162323,106.169365 
	C91.514717,100.995117 96.704491,97.011299 101.354660,92.277588 
z"/>
<path fill="#47CDCF" opacity="1.000000" stroke="none" 
	d="
M201.917770,133.752457 
	C205.207336,114.302292 198.046341,99.208672 183.772781,86.389404 
	C185.056580,85.749023 185.944122,85.109146 186.932388,84.842232 
	C210.494980,78.478600 232.267258,81.220047 250.383469,98.774246 
	C265.391022,113.316238 265.395233,135.469925 250.376663,149.950287 
	C246.018738,154.152069 244.959717,158.012085 246.202621,163.377792 
	C246.816040,166.025986 246.955688,168.783936 247.482803,172.816406 
	C243.104828,169.836349 239.702759,167.812195 236.647354,165.356644 
	C233.740982,163.020874 231.049713,162.778061 227.489273,163.931870 
	C213.345627,168.515335 199.162399,168.167511 184.066269,163.399261 
	C193.291077,155.126831 199.624039,145.826340 201.917770,133.752457 
z"/>
<path fill="#74DADB" opacity="1.000000" stroke="none" 
	d="
M174.996719,132.859650 
	C167.401627,132.346191 160.135956,133.902863 153.151184,132.031967 
	C153.176193,131.554810 153.201202,131.077652 153.226212,130.600494 
	C165.774689,130.600494 178.323151,130.600494 190.871628,130.600494 
	C190.914673,131.193054 190.957718,131.785599 191.000763,132.378159 
	C185.923462,133.376648 180.656311,132.627457 174.996719,132.859650 
z"/>
<path fill="#5DD3D5" opacity="1.000000" stroke="none" 
	d="
M158.444885,144.018539 
	C167.688049,143.630951 176.785812,143.630951 185.883575,143.630951 
	C176.668533,146.883072 167.481995,146.900391 158.444885,144.018539 
z"/>
<path fill="#47CDCF" opacity="1.000000" stroke="none" 
	d="
M161.098907,119.119827 
	C158.205902,119.119904 155.795700,119.119904 153.385498,119.119904 
	C153.382156,118.650246 153.378830,118.180580 153.375488,117.710922 
	C165.804794,117.710922 178.234100,117.710922 190.663406,117.710922 
	C190.682434,118.180534 190.701447,118.650146 190.720474,119.119759 
	C181.007553,119.119759 171.294617,119.119759 161.098907,119.119827 
z"/>
<path fill="#47CDCF" opacity="1.000000" stroke="none" 
	d="
M174.957230,105.992905 
	C169.199615,105.992905 163.933563,105.992905 158.126602,105.992905 
	C161.520554,103.301361 181.551666,103.079842 186.691406,105.992912 
	C182.112289,105.992912 178.780533,105.992912 174.957230,105.992905 
z"/>
</svg>