<svg version="1.1" id="Layer_1" xmlns="http://www.w3.org/2000/svg" xmlns:xlink="http://www.w3.org/1999/xlink" x="0px"
	y="0px" width="100%" viewBox="0 0 304 235" enable-background="new 0 0 304 235" xml:space="preserve">
	<path fill="#FFFFFF" opacity="1.000000" stroke="none" d="
M181.000000,236.000000 
	C120.666672,236.000000 60.833347,236.000000 1.000016,236.000000 
	C1.000011,157.666687 1.000011,79.333366 1.000005,1.000037 
	C102.333305,1.000025 203.666611,1.000025 304.999939,1.000012 
	C304.999939,79.333298 304.999939,157.666595 304.999969,235.999939 
	C263.833344,236.000000 222.666672,236.000000 181.000000,236.000000 
M167.841431,33.251251 
	C165.985413,33.981670 163.974548,34.460625 162.302689,35.490116 
	C157.473465,38.463840 153.120316,37.881733 147.864075,35.766289 
	C118.417168,23.914934 89.208893,24.989748 61.194626,40.041142 
	C19.217768,62.594307 10.351811,110.789185 41.529793,142.472748 
	C42.681416,143.643036 43.144272,146.097122 42.968536,147.857117 
	C42.374767,153.803848 41.334568,159.705399 40.490227,165.627823 
	C39.254353,174.296570 38.040253,182.968430 36.661610,192.739365 
	C38.979485,191.350052 40.390778,190.604141 41.696953,189.705460 
	C52.666046,182.158569 63.537048,174.464233 74.647362,167.132156 
	C76.547997,165.877884 79.647667,165.293900 81.852188,165.822754 
	C105.924530,171.597458 129.338318,170.126404 152.203903,160.401337 
	C153.780792,159.730667 156.140533,159.755203 157.727127,160.425201 
	C180.604095,170.085876 204.012375,171.689209 228.084076,165.780670 
	C230.154922,165.272354 233.081009,165.752731 234.851349,166.922104 
	C246.098434,174.351196 257.130280,182.106033 268.238800,189.745193 
	C269.633209,190.704132 271.061249,191.614166 273.167145,193.004730 
	C272.884369,190.440201 272.765778,188.959854 272.552460,187.493317 
	C270.710449,174.830124 268.697327,162.188400 267.130524,149.491516 
	C266.825958,147.023346 267.421661,143.609253 268.982330,141.869980 
	C295.837952,111.940887 292.305389,71.525162 260.055969,47.509167 
	C232.243179,26.797125 201.380295,23.396154 167.841431,33.251251 
z" />
	<path fill="#49CED0" opacity="1.000000" stroke="none" d="
M168.224243,33.144783 
	C201.380295,23.396154 232.243179,26.797125 260.055969,47.509167 
	C292.305389,71.525162 295.837952,111.940887 268.982330,141.869980 
	C267.421661,143.609253 266.825958,147.023346 267.130524,149.491516 
	C268.697327,162.188400 270.710449,174.830124 272.552460,187.493317 
	C272.765778,188.959854 272.884369,190.440201 273.167145,193.004730 
	C271.061249,191.614166 269.633209,190.704132 268.238800,189.745193 
	C257.130280,182.106033 246.098434,174.351196 234.851349,166.922104 
	C233.081009,165.752731 230.154922,165.272354 228.084076,165.780670 
	C204.012375,171.689209 180.604095,170.085876 157.727127,160.425201 
	C156.140533,159.755203 153.780792,159.730667 152.203903,160.401337 
	C129.338318,170.126404 105.924530,171.597458 81.852188,165.822754 
	C79.647667,165.293900 76.547997,165.877884 74.647362,167.132156 
	C63.537048,174.464233 52.666046,182.158569 41.696953,189.705460 
	C40.390778,190.604141 38.979485,191.350052 36.661610,192.739365 
	C38.040253,182.968430 39.254353,174.296570 40.490227,165.627823 
	C41.334568,159.705399 42.374767,153.803848 42.968536,147.857117 
	C43.144272,146.097122 42.681416,143.643036 41.529793,142.472748 
	C10.351811,110.789185 19.217768,62.594307 61.194626,40.041142 
	C89.208893,24.989748 118.417168,23.914934 147.864075,35.766289 
	C153.120316,37.881733 157.473465,38.463840 162.302689,35.490116 
	C163.974548,34.460625 165.985413,33.981670 168.224243,33.144783 
M185.860016,66.675377 
	C202.926544,98.172943 196.123093,125.473259 171.005753,149.726929 
	C172.250015,150.217102 173.275436,150.723755 174.357376,151.031998 
	C192.960464,156.331726 211.491348,156.196014 229.825897,149.896729 
	C232.869507,148.851028 235.095261,149.169800 237.629196,151.013824 
	C242.790207,154.769608 248.148148,158.254745 254.136444,162.336380 
	C253.240936,155.690933 252.837326,150.028732 251.617920,144.548019 
	C250.748184,140.638870 251.499634,138.267944 254.588547,135.536621 
	C278.547211,114.351738 278.176025,81.706673 253.917435,61.122437 
	C234.724442,44.836544 212.218964,40.591427 187.942398,43.521336 
	C181.927963,44.247204 176.050629,46.108948 170.065079,47.458755 
	C175.551498,54.080124 180.514130,60.069355 185.860016,66.675377 
M139.590942,48.332104 
	C139.182404,48.049858 138.812347,47.648193 138.359833,47.502449 
	C112.249626,39.092968 87.020798,40.693161 63.533485,55.422546 
	C48.936409,64.576668 39.125977,77.460495 37.786083,95.426003 
	C36.529861,112.269676 43.820084,125.420517 55.996964,136.236115 
	C58.460876,138.424591 59.028587,140.362289 58.402195,143.536575 
	C57.245903,149.396194 56.715912,155.379425 55.785004,162.360962 
	C62.158516,157.982895 67.396950,154.169098 72.882050,150.751175 
	C74.477493,149.757004 76.883072,149.292313 78.737267,149.616043 
	C87.223587,151.097656 95.576813,153.588898 104.108078,154.505951 
	C115.912636,155.774872 127.507774,153.765793 139.398163,149.775742 
	C137.584290,148.044647 136.268509,146.823029 134.989990,145.563599 
	C115.845367,126.704964 110.393738,104.302231 118.253548,78.783279 
	C121.988525,66.656685 130.104401,57.335197 139.590942,48.332104 
M170.450500,91.994896 
	C173.597504,91.994896 176.744507,91.994896 179.891510,91.994896 
	C179.966721,91.366631 180.041946,90.738373 180.117157,90.110107 
	C179.101746,89.743073 178.087799,89.061050 177.070709,89.056335 
	C162.306686,88.987801 147.542023,88.978683 132.778381,89.080597 
	C131.788727,89.087425 130.805984,90.098770 129.820038,90.642906 
	C129.967285,91.093567 130.114532,91.544235 130.261780,91.994896 
	C143.329651,91.994896 156.397537,91.994896 170.450500,91.994896 
M133.797653,106.090714 
	C132.502045,106.433556 131.206436,106.776398 129.910828,107.119232 
	C130.562164,108.552818 131.096786,109.043785 131.633163,109.045738 
	C147.057602,109.101906 162.482346,109.132088 177.906464,109.054070 
	C178.653687,109.050293 179.395737,108.025917 180.140198,107.476807 
	C180.001892,107.014687 179.863571,106.552567 179.725266,106.090446 
	C164.729050,106.090446 149.732849,106.090446 133.797653,106.090714 
M138.347229,74.857803 
	C149.837357,74.857803 161.327499,74.857803 172.817627,74.857803 
	C172.963867,74.329231 173.110123,73.800659 173.256363,73.272087 
	C172.208084,72.571815 171.168762,71.279297 170.110107,71.263275 
	C159.996368,71.110153 149.877991,71.089256 139.764557,71.252754 
	C137.989059,71.281456 135.813171,72.089432 138.347229,74.857803 
M141.862976,126.911659 
	C150.658264,126.911537 159.454315,126.970734 168.248154,126.857880 
	C169.875885,126.836990 171.494675,126.121727 173.117599,125.726944 
	C173.004822,125.236061 172.892059,124.745178 172.779282,124.254295 
	C160.765076,124.254295 148.750854,124.254295 136.736649,124.254295 
	C136.643677,124.699493 136.550720,125.144691 136.457764,125.589882 
	C137.962006,126.030365 139.466248,126.470840 141.862976,126.911659 
z" />
	<path fill="#FEFFFF" opacity="1.000000" stroke="none" d="
M185.668396,66.366974 
	C180.514130,60.069355 175.551498,54.080124 170.065079,47.458755 
	C176.050629,46.108948 181.927963,44.247204 187.942398,43.521336 
	C212.218964,40.591427 234.724442,44.836544 253.917435,61.122437 
	C278.176025,81.706673 278.547211,114.351738 254.588547,135.536621 
	C251.499634,138.267944 250.748184,140.638870 251.617920,144.548019 
	C252.837326,150.028732 253.240936,155.690933 254.136444,162.336380 
	C248.148148,158.254745 242.790207,154.769608 237.629196,151.013824 
	C235.095261,149.169800 232.869507,148.851028 229.825897,149.896729 
	C211.491348,156.196014 192.960464,156.331726 174.357376,151.031998 
	C173.275436,150.723755 172.250015,150.217102 171.005753,149.726929 
	C196.123093,125.473259 202.926544,98.172943 185.668396,66.366974 
z" />
	<path fill="#FEFFFF" opacity="1.000000" stroke="none" d="
M139.499390,48.669144 
	C130.104401,57.335197 121.988525,66.656685 118.253548,78.783279 
	C110.393738,104.302231 115.845367,126.704964 134.989990,145.563599 
	C136.268509,146.823029 137.584290,148.044647 139.398163,149.775742 
	C127.507774,153.765793 115.912636,155.774872 104.108078,154.505951 
	C95.576813,153.588898 87.223587,151.097656 78.737267,149.616043 
	C76.883072,149.292313 74.477493,149.757004 72.882050,150.751175 
	C67.396950,154.169098 62.158516,157.982895 55.785004,162.360962 
	C56.715912,155.379425 57.245903,149.396194 58.402195,143.536575 
	C59.028587,140.362289 58.460876,138.424591 55.996964,136.236115 
	C43.820084,125.420517 36.529861,112.269676 37.786083,95.426003 
	C39.125977,77.460495 48.936409,64.576668 63.533485,55.422546 
	C87.020798,40.693161 112.249626,39.092968 138.359833,47.502449 
	C138.812347,47.648193 139.182404,48.049858 139.499390,48.669144 
z" />
	<path fill="#FFFFFF" opacity="1.000000" stroke="none" d="
M169.957947,91.994896 
	C156.397537,91.994896 143.329651,91.994896 130.261780,91.994896 
	C130.114532,91.544235 129.967285,91.093567 129.820038,90.642906 
	C130.805984,90.098770 131.788727,89.087425 132.778381,89.080597 
	C147.542023,88.978683 162.306686,88.987801 177.070709,89.056335 
	C178.087799,89.061050 179.101746,89.743073 180.117157,90.110107 
	C180.041946,90.738373 179.966721,91.366631 179.891510,91.994896 
	C176.744507,91.994896 173.597504,91.994896 169.957947,91.994896 
z" />
	<path fill="#EFFBFB" opacity="1.000000" stroke="none" d="
M134.267151,106.090576 
	C149.732849,106.090446 164.729050,106.090446 179.725266,106.090446 
	C179.863571,106.552567 180.001892,107.014687 180.140198,107.476807 
	C179.395737,108.025917 178.653687,109.050293 177.906464,109.054070 
	C162.482346,109.132088 147.057602,109.101906 131.633163,109.045738 
	C131.096786,109.043785 130.562164,108.552818 129.910828,107.119232 
	C131.206436,106.776398 132.502045,106.433556 134.267151,106.090576 
z" />
	<path fill="#D0F2F3" opacity="1.000000" stroke="none" d="
M137.949982,74.832504 
	C135.813171,72.089432 137.989059,71.281456 139.764557,71.252754 
	C149.877991,71.089256 159.996368,71.110153 170.110107,71.263275 
	C171.168762,71.279297 172.208084,72.571815 173.256363,73.272087 
	C173.110123,73.800659 172.963867,74.329231 172.817627,74.857803 
	C161.327499,74.857803 149.837357,74.857803 137.949982,74.832504 
z" />
	<path fill="#EFFBFB" opacity="1.000000" stroke="none" d="
M141.416733,126.911491 
	C139.466248,126.470840 137.962006,126.030365 136.457764,125.589882 
	C136.550720,125.144691 136.643677,124.699493 136.736649,124.254295 
	C148.750854,124.254295 160.765076,124.254295 172.779282,124.254295 
	C172.892059,124.745178 173.004822,125.236061 173.117599,125.726944 
	C171.494675,126.121727 169.875885,126.836990 168.248154,126.857880 
	C159.454315,126.970734 150.658264,126.911537 141.416733,126.911491 
z" />
</svg>